<?xml version="1.0" encoding="utf-8"?>
<!-- Generator: Adobe Illustrator 13.0.2, SVG Export Plug-In . SVG Version: 6.00 Build 14948)  -->
<!DOCTYPE svg PUBLIC "-//W3C//DTD SVG 1.1//EN" "http://www.w3.org/Graphics/SVG/1.1/DTD/svg11.dtd">
<svg version="1.1" id="Layer_1" xmlns="http://www.w3.org/2000/svg" xmlns:xlink="http://www.w3.org/1999/xlink" x="0px" y="0px"
	 width="202px" height="234px" viewBox="0 0 202 234" enable-background="new 0 0 202 234" xml:space="preserve">
<g>
	<path fill-rule="evenodd" clip-rule="evenodd" fill="#FFFFFF" d="M122.626,11.424c0.654-0.127,1.309-0.255,1.964-0.382
		c0.127,0.655,0.254,1.309,0.381,1.964c-0.655,0.126-1.31,0.254-1.964,0.382C122.881,12.732,122.753,12.079,122.626,11.424z"/>
	<path fill-rule="evenodd" clip-rule="evenodd" fill="#FFFFFF" d="M105.717,55.458C104.013,59.066,101.076,52.777,105.717,55.458
		L105.717,55.458z"/>
	<path fill-rule="evenodd" clip-rule="evenodd" fill="#FFFFFF" d="M84.093,64.754c3.053,3.916,14.007,7.039,24.292,4.447
		c-2.936-4.515-7.355-3.445-10.551-7.118c6.034-1.219,14.442,3.475,20.559,6.192c-2.07,2.867-2.723,6.692-3,10.77
		c-16.652,7.998-31.94,7.494-35.256-8.43C83.491,74.718,85.021,68.577,84.093,64.754z"/>
	<path fill-rule="evenodd" clip-rule="evenodd" d="M148.061,58.436c-1.13,2.081-3.785,3.133-5.127,5.071
		c2.116,4.183,4.941,6.926,2.29,11.78c-4.922,0.13-9.186-0.712-10.361-6.138c3.534-1.022,5.667,0.03,8.235,0.438
		c-1.339-5.145-7.576-2.527-11.371-0.847c-1.67-5.394,3.937-5.874,3.003-10.77C141.426,55.696,143.541,55.767,148.061,58.436z"/>
	<path fill-rule="evenodd" clip-rule="evenodd" d="M132.298,71.685c-0.159-0.959,1.055-0.995,1.774-1.363
		C134.23,71.282,133.018,71.317,132.298,71.685z"/>
	<path fill-rule="evenodd" clip-rule="evenodd" fill="#FFFFFF" d="M87.441,97.72c7.528,4.535,4.349,11.146,7.58,12.789
		c-3.179,0.7-5.046,2.284-5.128,5.071C86.102,111.414,86.316,103.146,87.441,97.72z"/>
	<path fill-rule="evenodd" clip-rule="evenodd" fill="#FFFFFF" d="M133.74,94.835c1.354,3.573,4.175,9.949,2.672,13.743
		c-6.59,0.077-8.684-6.515-15.46-6.164C122.273,97.903,130.308,97.921,133.74,94.835z"/>
	<path fill-rule="evenodd" clip-rule="evenodd" fill="#FFFFFF" d="M89.674,119.698c0.655-0.128,1.311-0.255,1.963-0.383
		c0.128,0.655,0.255,1.31,0.382,1.964c-0.653,0.128-1.309,0.255-1.963,0.381C89.928,121.006,89.802,120.351,89.674,119.698z"/>
	<path fill-rule="evenodd" clip-rule="evenodd" fill="#FFFFFF" d="M146.084,168.84c0.96-0.159,0.995,1.054,1.364,1.772
		C146.488,170.771,146.452,169.56,146.084,168.84z"/>
	<path fill-rule="evenodd" clip-rule="evenodd" fill="#FFFFFF" d="M141.529,176.855c0.655-0.127,1.31-0.254,1.964-0.381
		c0.126,0.653,0.255,1.31,0.382,1.962c-0.656,0.129-1.311,0.257-1.965,0.383C141.785,178.164,141.657,177.51,141.529,176.855z"/>
	<path fill-rule="evenodd" clip-rule="evenodd" fill="#FFFFFF" d="M40.937,209.646C39.235,213.253,36.298,206.964,40.937,209.646
		L40.937,209.646z"/>
	<path fill-rule="evenodd" clip-rule="evenodd" fill="#FFFFFF" d="M190.691,188.695c1.282,0.003,1.369,1.761,0.381,1.964
		C189.561,190.501,191.003,189.778,190.691,188.695z"/>
	<path fill-rule="evenodd" clip-rule="evenodd" fill="#FFFFFF" d="M192.845,189.295
		C197.472,189.075,193.211,195.392,192.845,189.295L192.845,189.295z"/>
	<path fill-rule="evenodd" clip-rule="evenodd" fill="#FFFFFF" d="M69.729,216.275c1.267-3.007,6.03-0.607,8.044-0.545
		C76.43,218.853,72.395,215.376,69.729,216.275z"/>
	<path fill-rule="evenodd" clip-rule="evenodd" fill="#FFFFFF" d="M226.109,203.206c1.905-0.717,3.11-0.396,3.326,1.392
		c-0.981,0.19-1.963,0.382-2.945,0.572C226.363,204.517,226.235,203.86,226.109,203.206z"/>
	<path fill-rule="evenodd" clip-rule="evenodd" fill="#FFFFFF" d="M116.545,226.534c0.916,6.106,0.662,7.155,2.48,12.76
		c-3.799,1.419-4.451-1.83-5.07-5.127C118.938,237.423,109.818,226.405,116.545,226.534z"/>
	<path fill-rule="evenodd" clip-rule="evenodd" d="M136.58,77.985c0.776-3.062,3.017,2.124,5.289,1.009
		C140.755,82.554,137.669,78.622,136.58,77.985z"/>
	<path fill-rule="evenodd" clip-rule="evenodd" fill="#FFFFFF" d="M178.176,181.959c4.477-0.747,6.163,3.419,13.116,4.583
		C188.427,191.9,181.965,183.377,178.176,181.959z"/>
	<path fill-rule="evenodd" clip-rule="evenodd" fill="#FFFFFF" d="M157.943,187.929c-6.26,12.268-23.987,16.798-34.66,26.09
		C132.398,203.678,147.251,197.206,157.943,187.929z"/>
	<path fill-rule="evenodd" clip-rule="evenodd" fill="#FFFFFF" d="M98.934,219.77c3.723-1.695,8.551,5.844,14.287,5.373
		c-0.409,2.282-1.89,3.842-0.628,7.252C109.67,228.927,105.414,221.597,98.934,219.77z"/>
	<path fill-rule="evenodd" clip-rule="evenodd" fill="#FFFFFF" d="M146.819,177.865c3.405-1.253,3.549,2.325,4.089,5.317
		c-4.066,1.806-4.935,5.769-9.844,7.007c-0.587-3.659,0.95-2.747,3.545-2.727c-0.473-4.864-0.062-3.823-2.317-6.682
		C144.759,180.456,146.269,179.483,146.819,177.865z"/>
	<g>
		<g>
			<path fill-rule="evenodd" clip-rule="evenodd" d="M113.956,234.167c4.982,3.256-4.138-7.762,2.589-7.633
				c0.637,4.245,0.709,6.048,1.305,8.634h85.322v-54.854c-2.255,0.308-4.752,1.05-7.545,2.329
				c-6.179-1.799-12.648-3.165-17.614-6.765c-8.876,2.681-14.446,0.98-20.806,3.025c-0.399-1.279,3.417-3.739,0.219-4.117
				c-0.792,4.56-2.542-1.691-3.544,2.726c-0.059-6.535-6.38-6.614-6.024-10.035c-3.613,2.472-9.227-9.634-19.387-5.401
				c-0.292,3.821,3.025,12.055,3.624,18.651c-14.289,17.71-54.313,26.951-70.678,13.734c15.195,1.859,17.772-7.721,26.942-13.386
				c3.836,0.342,7.397,3.039,11.178-0.134c2.121-3.514-3.345-3.449-2.698-8.646c11.032-9.049,27.783-14.238,27.626-30.834
				c-5.648-4.271-14.141-4.326-17.585-11.864c-4.232,0.325-10.506-1.479-8.398-6.518c3.133,1.109,5.714,2.161,7.443,1.609
				c-1.213-0.055,2.816-3.719,4.145-4.881c5.537-0.23,8.54,3.17,11.78-2.288c-5.628,3.235-10.653-2.958-14.478-6.356
				c1.695-0.405,3.094-0.374,4.117,0.22c0.271-2.933-1.878-2.275-1.936-4.718c6.523-1.223,18.401-1.183,17.012,8.919
				c5.278-1.274,9.247-3.43,15.518-4.035c3.636-17.818-14.289-23.885-22.575-32.285c0.979-1.045,2.381-1.807,4.719-1.937
				c3.533-26.321-8.602-42.204-35.116-33.925c-0.114-7.788-6.502-10.889-9.896-19.469c22.83-10.821,48.774-7.602,61.541,7.397
				c1.18-7.551-6.705-15.912-14.614-17.535c3.558-0.299-0.113-4.884,0.029-5.1c-2.228-1.361-11.367-3.361-15.46-6.164
				c-38.197,0.634-67.911,21.668-64.058,58.29C36.8,67.252,34.808,79.56,41.579,92.37c2.244,4.244,7.637,6.319,9.16,10.444
				c2.124,5.748,3.669,31.361,2.75,35.121c-4.505,18.418-11.93,36.441-33.925,35.114C16.694,184.263,8.09,191.609-1.333,198.4
				v36.768h115.484C114.083,234.838,114.019,234.503,113.956,234.167z M192.845,189.295
				C197.472,189.075,193.211,195.392,192.845,189.295L192.845,189.295z M191.072,190.659c-1.511-0.158-0.069-0.881-0.381-1.964
				C191.973,188.698,192.06,190.456,191.072,190.659z M191.292,186.542c-2.864,5.358-9.327-3.165-13.116-4.583
				C182.653,181.212,184.339,185.378,191.292,186.542z M147.448,170.612c-0.96,0.159-0.996-1.053-1.364-1.772
				C147.044,168.681,147.079,169.894,147.448,170.612z M143.493,176.475c0.126,0.653,0.255,1.31,0.382,1.962
				c-0.656,0.129-1.311,0.257-1.965,0.383c-0.126-0.655-0.254-1.31-0.381-1.964C142.184,176.729,142.839,176.602,143.493,176.475z
				 M144.609,187.463c-0.473-4.864-0.062-3.823-2.317-6.682c2.467-0.325,3.976-1.298,4.527-2.916
				c3.405-1.253,3.549,2.325,4.089,5.317c-4.066,1.806-4.935,5.769-9.844,7.007C140.477,186.53,142.014,187.442,144.609,187.463z
				 M157.943,187.929c-6.26,12.268-23.987,16.798-34.66,26.09C132.398,203.678,147.251,197.206,157.943,187.929z M133.74,94.835
				c1.354,3.573,4.175,9.949,2.672,13.743c-6.59,0.077-8.684-6.515-15.46-6.164C122.273,97.903,130.308,97.921,133.74,94.835z
				 M90.056,121.66c-0.128-0.654-0.254-1.31-0.382-1.962c0.655-0.128,1.311-0.255,1.963-0.383c0.128,0.655,0.255,1.31,0.382,1.964
				C91.366,121.407,90.71,121.534,90.056,121.66z M89.893,115.58c-3.791-4.166-3.576-12.434-2.451-17.86
				c7.528,4.535,4.349,11.146,7.58,12.789C91.842,111.209,89.975,112.793,89.893,115.58z M105.717,55.458
				C104.013,59.066,101.076,52.777,105.717,55.458L105.717,55.458z M84.093,64.754c3.053,3.916,14.007,7.039,24.292,4.447
				c-2.936-4.515-7.355-3.445-10.551-7.118c6.034-1.219,14.442,3.475,20.559,6.192c-2.07,2.867-2.723,6.692-3,10.77
				c-16.652,7.998-31.94,7.494-35.256-8.43C83.491,74.718,85.021,68.577,84.093,64.754z M124.59,11.042
				c0.127,0.655,0.254,1.309,0.381,1.964c-0.655,0.126-1.31,0.254-1.964,0.382c-0.127-0.655-0.255-1.309-0.381-1.964
				C123.28,11.297,123.936,11.169,124.59,11.042z M40.937,209.646C39.235,213.253,36.298,206.964,40.937,209.646L40.937,209.646z
				 M69.729,216.275c1.267-3.007,6.03-0.607,8.044-0.545C76.43,218.853,72.395,215.376,69.729,216.275z M112.592,232.395
				c-2.922-3.468-7.178-10.798-13.658-12.625c3.723-1.695,8.551,5.844,14.287,5.373C112.811,227.425,111.33,228.984,112.592,232.395
				z"/>
		</g>
	</g>
</g>
</svg>
