<?xml version="1.0" encoding="utf-8"?>
<!-- Generator: Adobe Illustrator 21.0.2, SVG Export Plug-In . SVG Version: 6.00 Build 0)  -->
<svg version="1.1" xmlns="http://www.w3.org/2000/svg" xmlns:xlink="http://www.w3.org/1999/xlink" x="0px" y="0px"
	 viewBox="0 0 197.4 197.4" style="enable-background:new 0 0 197.4 197.4;" xml:space="preserve">
<style type="text/css">
	.st0{fill:#009688;}
	.st1{clip-path:url(#SVGID_2_);fill:#FFFFFF;}
</style>
<g id="Layer_2_copy">
	<rect class="st0" width="197.4" height="197.4"/>
</g>
<g id="Layer_2">
	<g>
		<defs>
			<circle id="SVGID_1_" cx="98.7" cy="98.7" r="98.7"/>
		</defs>
		<clipPath id="SVGID_2_">
			<use xlink:href="#SVGID_1_"  style="overflow:visible;"/>
		</clipPath>
		<rect x="-44.7" y="-54.7" class="st1" width="286.8" height="332.3"/>
	</g>
</g>
<g id="Layer_1">
	<g>
		<path class="st0" d="M141,60.9c-1,1.8-3.3,2.8-4.5,4.5c1.9,3.7,4.4,6.1,2,10.4c-4.3,0.1-8.1-0.6-9.1-5.4c3.1-0.9,5,0,7.3,0.4
			c-1.2-4.5-6.7-2.2-10-0.7c-1.5-4.7,3.5-5.2,2.6-9.5C135.2,58.5,137,58.5,141,60.9z"/>
		<path class="st0" d="M127.1,72.6c-0.1-0.8,0.9-0.9,1.6-1.2C128.8,72.2,127.8,72.2,127.1,72.6z"/>
		<path class="st0" d="M130.9,78.1c0.7-2.7,2.7,1.9,4.7,0.9C134.6,82.1,131.9,78.7,130.9,78.1z"/>
		<g>
			<g>
				<path class="st0" d="M111,215.6c4.4,2.9-3.6-6.8,2.3-6.7c0.6,3.7,0.6,5.3,1.1,7.6h75.1v-48.3c-2,0.3-4.2,0.9-6.6,2.1
					c-5.4-1.6-11.1-2.8-15.5-6c-7.8,2.4-12.7,0.9-18.3,2.7c-0.4-1.1,3-3.3,0.2-3.6c-0.7,4-2.2-1.5-3.1,2.4c-0.1-5.8-5.6-5.8-5.3-8.8
					c-3.2,2.2-8.1-8.5-17.1-4.8c-0.3,3.4,2.7,10.6,3.2,16.4c-12.6,15.6-47.8,23.7-62.2,12.1c13.4,1.6,15.6-6.8,23.7-11.8
					c3.4,0.3,6.5,2.7,9.8-0.1c1.9-3.1-2.9-3-2.4-7.6c9.7-8,24.5-12.5,24.3-27.2c-5-3.8-12.5-3.8-15.5-10.4c-3.7,0.3-9.3-1.3-7.4-5.7
					c2.8,1,5,1.9,6.6,1.4c-1.1,0,2.5-3.3,3.6-4.3c4.9-0.2,7.5,2.8,10.4-2c-5,2.8-9.4-2.6-12.7-5.6c1.5-0.4,2.7-0.3,3.6,0.2
					c0.2-2.6-1.7-2-1.7-4.2c5.7-1.1,16.2-1,15,7.9c4.6-1.1,8.1-3,13.7-3.6c3.2-15.7-12.6-21-19.9-28.4c0.9-0.9,2.1-1.6,4.2-1.7
					c3.1-23.2-7.6-37.2-30.9-29.9c-0.1-6.9-5.7-9.6-8.7-17.1c20.1-9.5,42.9-6.7,54.2,6.5c1-6.6-5.9-14-12.9-15.4
					c3.1-0.3-0.1-4.3,0-4.5c-2-1.2-10-3-13.6-5.4C74.5,12.2,48.3,30.7,51.7,63c-8.7,5.7-10.4,16.5-4.5,27.8c2,3.7,6.7,5.6,8.1,9.2
					c1.9,5.1,3.2,27.6,2.4,30.9c-4,16.2-10.5,32.1-29.9,30.9c-2.5,9.9-10.1,16.3-18.4,22.3v32.4h101.7
					C111.1,216.2,111,215.9,111,215.6z M180.5,176.1C184.5,175.9,180.8,181.5,180.5,176.1L180.5,176.1z M178.9,177.3
					c-1.3-0.1-0.1-0.8-0.3-1.7C179.7,175.6,179.8,177.1,178.9,177.3z M179.1,173.7c-2.5,4.7-8.2-2.8-11.5-4
					C171.5,169,173,172.7,179.1,173.7z M140.5,159.7c-0.8,0.1-0.9-0.9-1.2-1.6C140.1,158,140.2,159,140.5,159.7z M137,164.8
					c0.1,0.6,0.2,1.2,0.3,1.7c-0.6,0.1-1.2,0.2-1.7,0.3c-0.1-0.6-0.2-1.2-0.3-1.7C135.9,165.1,136.4,164.9,137,164.8z M138,174.5
					c-0.4-4.3-0.1-3.4-2-5.9c2.2-0.3,3.5-1.1,4-2.6c3-1.1,3.1,2,3.6,4.7c-3.6,1.6-4.3,5.1-8.7,6.2
					C134.3,173.7,135.7,174.5,138,174.5z M149.7,174.9c-5.5,10.8-21.1,14.8-30.5,23C127.2,188.8,140.3,183.1,149.7,174.9z
					 M128.4,92.9c1.2,3.1,3.7,8.8,2.4,12.1c-5.8,0.1-7.6-5.7-13.6-5.4C118.3,95.6,125.4,95.7,128.4,92.9z M89.9,116.6
					c-0.1-0.6-0.2-1.2-0.3-1.7c0.6-0.1,1.2-0.2,1.7-0.3c0.1,0.6,0.2,1.2,0.3,1.7C91.1,116.3,90.5,116.5,89.9,116.6z M89.8,111.2
					c-3.3-3.7-3.1-10.9-2.2-15.7c6.6,4,3.8,9.8,6.7,11.3C91.5,107.4,89.9,108.8,89.8,111.2z M103.7,58.3
					C102.2,61.4,99.7,55.9,103.7,58.3L103.7,58.3z M84.7,66.5c2.7,3.4,12.3,6.2,21.4,3.9c-2.6-4-6.5-3-9.3-6.3
					c5.3-1.1,12.7,3.1,18.1,5.5c-1.8,2.5-2.4,5.9-2.6,9.5c-14.7,7-28.1,6.6-31-7.4C84.2,75.2,85.5,69.8,84.7,66.5z M120.4,19.2
					c0.1,0.6,0.2,1.2,0.3,1.7c-0.6,0.1-1.2,0.2-1.7,0.3c-0.1-0.6-0.2-1.2-0.3-1.7C119.2,19.4,119.8,19.3,120.4,19.2z M46.7,194
					C45.2,197.2,42.6,191.7,46.7,194L46.7,194z M72,199.9c1.1-2.6,5.3-0.5,7.1-0.5C77.9,202.1,74.4,199.1,72,199.9z M109.8,214.1
					c-2.6-3.1-6.3-9.5-12-11.1c3.3-1.5,7.5,5.1,12.6,4.7C110,209.7,108.7,211.1,109.8,214.1z"/>
			</g>
		</g>
	</g>
</g>
</svg>
